<svg width="10" height="10" viewBox="0 0 10 10" fill="none" xmlns="http://www.w3.org/2000/svg">
<g id="Frame">
<path id="Vector" d="M5 9.88663L2.34835 7.235C0.883883 5.7705 0.883883 3.39615 2.34835 1.93169C3.81282 0.467219 6.18717 0.467219 7.65167 1.93169C9.11612 3.39615 9.11612 5.7705 7.65167 7.235L5 9.88663ZM7.06237 6.64571C8.20142 5.50671 8.20142 3.65997 7.06237 2.52094C5.92337 1.38191 4.07663 1.38191 2.9376 2.52094C1.79857 3.65997 1.79857 5.50671 2.9376 6.64571L5 8.70813L7.06237 6.64571ZM5 5.41667C4.53975 5.41667 4.16667 5.04359 4.16667 4.58334C4.16667 4.1231 4.53975 3.75 5 3.75C5.46025 3.75 5.83333 4.1231 5.83333 4.58334C5.83333 5.04359 5.46025 5.41667 5 5.41667Z" fill="black"/>
</g>
</svg>
