<svg width="26" height="24" viewBox="0 0 26 24" fill="none" xmlns="http://www.w3.org/2000/svg">
<g id="Group 26">
<path id="Vector" fill-rule="evenodd" clip-rule="evenodd" d="M4.75 22.5385C3.94615 22.5385 3.20337 22.0986 2.80144 21.3846C2.39952 20.6706 2.39952 19.7909 2.80144 19.0769C3.20337 18.3629 3.94615 17.9231 4.75 17.9231H21.25C22.4926 17.9231 23.5 18.9563 23.5 20.2308C23.5 21.5052 22.4926 22.5385 21.25 22.5385H4.75Z" stroke="black" stroke-linecap="round" stroke-linejoin="round"/>
<path id="Vector_2" fill-rule="evenodd" clip-rule="evenodd" d="M2.5 5.61544C4.3975 9.04314 8.5975 14.1831 13 5.61544C17.4025 14.1831 21.6025 9.04314 23.5 5.61544L21.4 17.9231H4.6L2.5 5.61544Z" stroke="black" stroke-linecap="round" stroke-linejoin="round"/>
<path id="Vector_3" fill-rule="evenodd" clip-rule="evenodd" d="M13 5.61539C11.7574 5.61539 10.75 4.5822 10.75 3.30769C10.75 2.03319 11.7574 1 13 1C14.2428 1 15.25 2.03319 15.25 3.30769C15.25 3.91972 15.0131 4.50671 14.5911 4.93948C14.1691 5.37225 13.5968 5.61539 13 5.61539Z" stroke="black" stroke-linecap="round" stroke-linejoin="round"/>
<path id="Vector_4" fill-rule="evenodd" clip-rule="evenodd" d="M23.5 5.61541C22.6717 5.61541 22 4.92661 22 4.07695C22 3.22728 22.6717 2.53848 23.5 2.53848C24.3285 2.53848 25 3.22728 25 4.07695C25 4.48498 24.842 4.87629 24.5608 5.16481C24.2794 5.45332 23.8978 5.61541 23.5 5.61541Z" stroke="black" stroke-linecap="round" stroke-linejoin="round"/>
<path id="Vector_5" fill-rule="evenodd" clip-rule="evenodd" d="M2.5 5.61541C1.67159 5.61541 1 4.92661 1 4.07695C1 3.22728 1.67159 2.53848 2.5 2.53848C3.32844 2.53848 4.00001 3.22728 4.00001 4.07695C4.00001 4.48498 3.84197 4.87629 3.56067 5.16481C3.27937 5.45332 2.89783 5.61541 2.5 5.61541Z" stroke="black" stroke-linecap="round" stroke-linejoin="round"/>
</g>
</svg>
